<svg width="675" height="99" viewBox="0 0 675 99" fill="none" xmlns="http://www.w3.org/2000/svg">
<path d="M26.0653 97H-0.154746V1.77999H26.0653V97ZM56.7325 97H31.8925V1.77999H60.4585L93.4405 55.186V1.77999H118.281V97H89.7145L56.7325 43.318V97ZM180.763 97H149.575L117.007 1.77999H145.159L165.445 64.018L185.869 1.77999H213.331L180.763 97ZM238.375 97H212.155V1.77999H238.375V97ZM291.398 97H265.178V26.482H239.924V1.77999H316.652V26.482H291.398V97ZM326.049 97H298.725L334.605 1.77999H363.447L399.465 97H371.451L366.483 82.786H331.017L326.049 97ZM348.681 32.554L339.297 59.464H358.203L348.681 32.554ZM432.983 97H406.763V26.482H381.509V1.77999H458.237V26.482H432.983V97ZM485.966 97H459.746V1.77999H485.966V97ZM537.472 98.38C509.32 98.38 487.654 76.99 487.654 49.39C487.654 21.79 509.32 0.399993 537.472 0.399993C565.486 0.399993 587.152 21.79 587.152 49.39C587.152 76.99 565.486 98.38 537.472 98.38ZM537.472 73.678C550.996 73.678 560.932 63.466 560.932 49.39C560.932 35.314 550.996 25.102 537.472 25.102C523.81 25.102 513.874 35.314 513.874 49.39C513.874 63.466 523.81 73.678 537.472 73.678ZM613.638 97H588.798V1.77999H617.364L650.346 55.186V1.77999H675.186V97H646.62L613.638 43.318V97Z" fill="url(#paint0_linear_3_13)"/>
<defs>
<linearGradient id="paint0_linear_3_13" x1="-7" y1="45" x2="682" y2="45" gradientUnits="userSpaceOnUse">
<stop stop-color="#BF8038"/>
<stop offset="1" stop-color="#4A230E"/>
</linearGradient>
</defs>
</svg>
